<?xml version="1.0" standalone="no"?>
<!DOCTYPE svg PUBLIC "-//W3C//DTD SVG 20010904//EN"
 "http://www.w3.org/TR/2001/REC-SVG-20010904/DTD/svg10.dtd">
<svg version="1.0" xmlns="http://www.w3.org/2000/svg"
 width="300.000000pt" height="241.000000pt" viewBox="0 0 300.000000 241.000000"
 preserveAspectRatio="xMidYMid meet">
<metadata>
Created by potrace 1.10, written by Peter Selinger 2001-2011
</metadata>
<g transform="translate(0.000000,241.000000) scale(0.100000,-0.100000)"
fill="#000000" stroke="none">
<path d="M1713 1776 l-22 -23 25 -53 c14 -29 23 -54 21 -56 -2 -3 -17 2 -33 9
-16 8 -42 21 -59 28 -16 8 -36 27 -43 42 -7 15 -20 27 -28 27 -19 0 -18 -19 3
-42 15 -17 15 -18 -3 -18 -11 0 -25 5 -32 12 -8 8 -15 8 -26 -2 -24 -19 -12
-27 54 -34 33 -4 60 -11 60 -16 0 -6 -5 -10 -11 -10 -5 0 -7 -4 -4 -10 10 -15
35 -12 35 5 0 20 13 19 61 -5 39 -20 53 -42 61 -89 l3 -22 -205 1 -205 1 -35
28 c-27 21 -39 42 -51 87 -9 32 -19 66 -23 76 -5 10 -3 15 6 15 7 -1 13 3 13
8 0 6 -8 9 -17 8 -12 -2 -18 4 -18 17 0 13 -7 20 -20 20 -26 0 -25 -11 5 -56
25 -37 34 -71 15 -59 -6 3 -17 19 -25 36 -9 16 -22 29 -30 29 -19 0 -20 -26
-1 -33 7 -3 34 -37 60 -75 25 -38 56 -76 68 -85 33 -21 20 -27 -46 -20 -43 4
-71 15 -105 38 -26 18 -65 42 -88 53 -37 20 -103 86 -103 104 0 5 7 8 15 8 8
0 15 7 15 15 0 18 -26 20 -36 3 -5 -7 -10 -4 -15 10 -9 24 -39 30 -39 8 0 -8
4 -16 8 -18 13 -5 74 -98 64 -98 -19 0 -78 24 -95 38 -14 12 -20 13 -30 3 -16
-16 -5 -22 115 -62 64 -21 97 -37 94 -45 -6 -17 5 -26 18 -15 12 10 76 -24 76
-40 0 -25 -92 6 -116 39 -6 8 -16 12 -22 8 -20 -12 -14 -21 24 -40 20 -9 34
-19 32 -21 -10 -11 -74 19 -95 43 -26 31 -35 26 -27 -15 6 -29 10 -31 60 -38
30 -3 54 -10 54 -15 0 -25 -158 -37 -240 -18 -8 1 -16 -1 -18 -7 -2 -5 13 -13
33 -16 51 -9 51 -14 1 -39 -26 -12 -46 -26 -46 -30 0 -23 24 -17 71 16 36 25
68 38 108 44 31 4 90 22 133 39 69 28 118 39 118 26 0 -2 -56 -71 -124 -153
l-124 -148 -115 -23 c-74 -15 -128 -21 -151 -17 -32 6 -36 5 -36 -14 0 -23 5
-24 49 -9 43 15 49 5 16 -24 -16 -14 -25 -29 -21 -35 12 -19 26 -14 36 13 11
28 45 47 115 64 28 7 59 15 70 18 27 8 -79 -114 -116 -132 -15 -8 -43 -15 -61
-15 -19 0 -66 -16 -107 -35 -40 -19 -84 -35 -97 -35 -17 0 -24 -6 -24 -20 0
-24 -3 -24 49 1 24 11 45 18 47 16 3 -3 -16 -23 -41 -45 -25 -22 -45 -45 -45
-51 0 -17 24 -13 40 7 8 9 34 40 58 68 39 46 51 54 109 68 36 9 67 15 69 14 1
-2 -35 -46 -81 -98 -47 -52 -85 -98 -85 -102 0 -5 9 -8 20 -8 11 0 20 6 20 13
1 13 34 57 44 57 10 0 7 -18 -11 -60 -10 -22 -23 -40 -30 -40 -15 0 -17 -16
-3 -25 22 -13 70 63 70 112 0 25 48 113 62 113 4 0 10 -5 13 -10 7 -12 -13
-157 -25 -181 -10 -19 -4 -29 17 -29 8 0 13 12 13 35 0 45 17 45 26 0 6 -34 4
-58 -12 -120 -6 -22 -4 -26 11 -23 13 2 19 15 22 48 5 54 10 61 29 36 11 -16
17 -17 26 -8 10 10 7 16 -12 30 -13 9 -27 19 -30 22 -4 3 -16 25 -28 50 -15
32 -19 53 -14 73 l7 28 32 -43 c17 -24 70 -92 117 -151 96 -122 92 -104 50
-252 -13 -44 -30 -84 -38 -90 -8 -5 -23 -15 -33 -22 -17 -11 -17 -11 1 -19 13
-5 21 -2 28 9 12 23 28 21 28 -3 0 -11 7 -20 15 -20 8 0 15 -7 15 -15 0 -8 5
-15 10 -15 6 0 10 7 10 15 0 8 7 15 15 15 8 0 15 5 15 10 0 6 -7 10 -15 10 -8
0 -15 -4 -15 -10 0 -23 -19 -8 -25 20 -8 35 3 110 15 110 4 0 13 -23 20 -50
11 -48 25 -68 37 -57 3 3 -4 34 -16 68 -31 94 -25 203 8 142 5 -10 32 -47 60
-82 43 -53 51 -70 51 -105 0 -23 -9 -55 -19 -73 -11 -17 -17 -34 -14 -37 13
-13 25 -5 35 25 8 23 13 27 19 17 14 -22 10 -36 -21 -71 -16 -19 -30 -37 -30
-41 0 -11 28 -6 33 7 3 9 9 9 26 0 27 -17 31 -16 31 2 0 8 -7 15 -16 15 -12 0
-14 5 -9 18 16 37 16 61 1 90 -18 34 -20 52 -8 52 14 0 79 -96 86 -127 8 -35
59 -88 75 -79 16 10 13 26 -3 26 -8 0 -22 10 -30 22 -32 45 -13 51 34 12 l31
-27 6 22 c5 19 12 22 42 19 26 -2 36 1 36 11 0 10 -19 14 -79 15 l-78 1 -33
40 c-19 22 -32 41 -30 43 2 2 17 -4 34 -12 38 -20 61 -20 61 -1 0 8 -8 15 -19
15 -50 0 -151 55 -151 82 0 4 88 8 197 8 194 0 197 0 250 -27 30 -16 77 -47
103 -69 51 -43 137 -90 147 -81 10 11 -6 37 -22 37 -22 0 -95 38 -95 50 0 20
50 9 100 -20 56 -33 80 -38 80 -15 0 9 -9 15 -22 15 -13 1 -34 8 -48 16 -24
14 -23 15 23 9 38 -5 47 -3 47 9 0 14 -17 16 -105 16 -99 0 -109 2 -158 30
l-52 30 132 0 c128 0 135 -1 219 -35 48 -20 93 -40 101 -46 9 -9 17 -8 28 1
20 17 11 24 -47 40 -27 7 -48 16 -48 21 0 5 13 15 29 23 26 14 32 13 64 -3 25
-13 39 -15 46 -8 18 18 12 27 -18 27 -38 0 -49 17 -17 26 13 3 27 13 30 22 3
10 9 23 12 30 3 7 -1 12 -11 12 -9 0 -15 -6 -13 -12 5 -13 -13 -26 -72 -54
-19 -9 -45 -25 -57 -36 -20 -19 -26 -19 -55 -8 -18 7 -37 17 -42 21 -14 12 99
118 134 125 38 8 47 21 27 41 -14 14 -19 13 -47 -16 -17 -17 -36 -31 -41 -31
-13 0 -11 34 2 47 15 15 2 35 -19 31 -13 -3 -17 -15 -17 -54 0 -44 -5 -57 -35
-91 -27 -32 -45 -43 -78 -48 -24 -4 -45 -5 -48 -3 -2 3 26 52 64 109 38 57 76
118 85 135 24 47 73 94 97 94 12 0 33 9 47 20 32 25 106 29 97 5 -4 -9 0 -15
10 -15 9 0 16 6 16 13 0 16 -34 35 -69 39 l-23 3 19 24 c16 19 30 25 64 25 26
1 42 5 39 11 -3 6 -20 10 -38 10 -17 0 -32 2 -32 5 0 10 75 77 93 83 22 8 22
27 -1 27 -23 0 -98 -78 -151 -158 -41 -61 -60 -78 -80 -70 -12 4 59 116 112
178 20 23 44 62 54 86 10 24 25 46 33 49 28 10 92 76 86 91 -8 21 -25 17 -35
-8 -5 -13 -21 -34 -35 -47 l-26 -24 0 26 c0 31 17 79 32 88 14 9 2 42 -13 37
-15 -5 -50 -114 -43 -133 7 -17 -53 -145 -67 -145 -6 0 -8 4 -4 9 3 5 8 44 11
86 5 70 3 76 -13 73 -15 -3 -17 -13 -14 -89 1 -48 -2 -89 -7 -93 -5 -3 -22 14
-38 39 -16 24 -77 109 -136 188 -59 80 -107 151 -108 158 -4 27 0 39 13 39 8
0 36 11 63 25 27 14 56 25 65 25 9 0 24 12 34 26 l17 26 -34 -7 c-18 -4 -35
-12 -36 -17 -4 -8 -95 -58 -106 -58 -3 0 -3 6 0 14 6 15 108 86 124 86 5 0 10
7 10 15 0 22 -18 18 -52 -10 -51 -43 -61 -29 -15 22 10 12 16 26 12 32 -10 17
-35 13 -41 -6 -14 -43 -80 -183 -86 -183 -4 0 -9 8 -12 18 -3 9 -17 29 -30 43
-13 15 -29 44 -35 65 -9 32 -8 43 7 64 9 14 27 44 38 68 17 34 19 45 8 49 -20
8 -34 -6 -34 -34 0 -26 -29 -83 -42 -83 -15 0 -8 41 17 92 15 31 21 56 16 61
-15 15 -28 0 -35 -44 -4 -25 -11 -39 -19 -36 -15 5 -22 67 -8 67 6 0 11 7 11
15 0 21 -11 18 -37 -9z m133 -344 c23 -31 104 -143 181 -248 l141 -192 -117
-178 c-64 -99 -139 -214 -166 -256 l-48 -78 -293 0 -293 0 -34 42 c-229 287
-369 473 -361 483 5 7 56 68 114 137 58 68 147 175 199 236 l94 112 271 -1
271 0 41 -57z"/>
<path d="M1347 1203 c-13 -12 -7 -23 12 -23 38 0 42 -21 39 -201 l-3 -173 -25
-6 c-25 -6 -36 -36 -12 -34 6 1 83 2 171 3 l159 1 11 44 c14 58 14 56 -9 56
-11 0 -20 -6 -20 -14 0 -8 -12 -24 -26 -35 -21 -17 -41 -21 -95 -21 -38 0 -71
5 -75 11 -3 6 -7 44 -9 85 l-3 74 43 0 c57 0 75 -8 86 -36 4 -13 15 -24 24
-24 12 0 15 15 15 76 0 65 -2 75 -16 70 -9 -3 -18 -6 -20 -6 -2 0 -4 -9 -4
-19 0 -26 -5 -28 -69 -32 l-54 -4 -2 93 -1 92 53 0 c76 0 122 -21 129 -60 6
-28 26 -40 37 -22 3 4 0 31 -5 60 l-11 52 -157 0 c-86 0 -160 -3 -163 -7z"/>
<path d="M1605 1780 c-4 -7 -3 -16 3 -22 14 -14 47 -6 47 12 0 18 -40 26 -50
10z"/>
<path d="M1372 1767 c-14 -16 -6 -27 20 -27 13 0 18 6 16 17 -4 22 -22 27 -36
10z"/>
<path d="M1134 1655 c-4 -9 -2 -21 4 -27 15 -15 44 -1 40 19 -4 23 -36 29 -44
8z"/>
<path d="M841 1641 c-12 -8 -12 -12 -2 -25 8 -9 20 -16 28 -16 19 0 29 30 12
41 -17 11 -21 11 -38 0z"/>
<path d="M1370 1625 c-10 -12 -9 -16 5 -21 19 -8 40 9 31 25 -10 15 -21 14
-36 -4z"/>
<path d="M1653 1614 c-3 -8 -1 -20 6 -27 14 -14 47 15 37 32 -10 16 -36 13
-43 -5z"/>
<path d="M1815 1621 c-8 -14 23 -41 40 -35 26 10 18 44 -9 44 -14 0 -27 -4
-31 -9z"/>
<path d="M1327 1604 c-16 -16 -6 -35 16 -32 12 2 22 10 22 18 0 16 -26 25 -38
14z"/>
<path d="M1497 1593 c-16 -15 -6 -34 15 -31 29 4 38 38 10 38 -10 0 -22 -3
-25 -7z"/>
<path d="M857 1504 c-16 -16 -6 -35 16 -32 12 2 22 10 22 18 0 16 -26 25 -38
14z"/>
<path d="M2164 1479 c-9 -16 12 -33 31 -25 14 5 15 9 5 21 -15 18 -26 19 -36
4z"/>
<path d="M2012 1468 c-20 -20 -14 -38 14 -38 20 0 25 4 22 22 -4 26 -19 33
-36 16z"/>
<path d="M2232 1438 c7 -19 38 -22 38 -4 0 10 -9 16 -21 16 -12 0 -19 -5 -17
-12z"/>
<path d="M1010 1404 c0 -9 7 -14 17 -12 25 5 28 28 4 28 -12 0 -21 -6 -21 -16z"/>
<path d="M2159 1418 c-1 -1 -2 -18 -4 -35 -2 -23 2 -33 11 -33 8 0 15 9 16 20
0 11 1 25 2 32 1 10 -22 25 -25 16z"/>
<path d="M1972 1338 c4 -30 43 -33 43 -3 0 13 -8 21 -23 23 -20 3 -23 0 -20
-20z"/>
<path d="M634 1339 c-10 -17 13 -36 27 -22 12 12 4 33 -11 33 -5 0 -12 -5 -16
-11z"/>
<path d="M917 1334 c-14 -14 -7 -35 11 -32 9 2 17 10 17 17 0 16 -18 25 -28
15z"/>
<path d="M2230 1321 c0 -11 -5 -23 -10 -26 -15 -9 -2 -25 20 -25 14 0 18 7 17
35 -1 37 -27 52 -27 16z"/>
<path d="M2037 1323 c-16 -15 -6 -34 15 -31 29 4 38 38 10 38 -10 0 -22 -3
-25 -7z"/>
<path d="M962 1308 c-20 -20 -14 -47 12 -54 14 -3 30 -3 35 1 24 14 4 65 -24
65 -6 0 -16 -5 -23 -12z"/>
<path d="M655 1289 c-4 -6 -2 -15 5 -19 17 -10 42 -1 37 14 -5 16 -34 19 -42
5z"/>
<path d="M841 1261 c-7 -5 -22 -6 -32 -4 -10 3 -19 0 -19 -6 0 -6 7 -11 15
-11 9 0 18 -6 21 -14 8 -21 32 -28 55 -16 24 14 24 36 0 50 -23 12 -22 12 -40
1z"/>
<path d="M2070 1246 c0 -8 4 -17 9 -20 11 -7 33 18 24 27 -12 12 -33 7 -33 -7z"/>
<path d="M2126 1244 c-4 -10 -2 -22 3 -27 15 -15 46 -3 46 18 0 26 -40 33 -49
9z"/>
<path d="M734 1195 c-4 -10 -1 -21 7 -26 20 -12 34 -5 34 17 0 24 -33 31 -41
9z"/>
<path d="M2117 1177 c-8 -21 8 -39 29 -35 27 5 25 42 -2 46 -12 2 -24 -3 -27
-11z"/>
<path d="M2365 1170 c-9 -15 4 -30 26 -30 12 0 19 7 19 20 0 21 -33 29 -45 10z"/>
<path d="M664 1089 c-10 -17 13 -36 27 -22 12 12 4 33 -11 33 -5 0 -12 -5 -16
-11z"/>
<path d="M800 1085 c-10 -12 -10 -19 -1 -28 14 -14 46 2 46 24 0 20 -30 23
-45 4z"/>
<path d="M554 1006 c-8 -21 3 -36 27 -36 15 0 20 6 17 22 -4 27 -35 37 -44 14z"/>
<path d="M2314 1005 c-4 -9 -2 -21 3 -26 14 -14 45 1 41 20 -4 22 -37 26 -44
6z"/>
<path d="M604 839 c-10 -17 13 -36 27 -22 12 12 4 33 -11 33 -5 0 -12 -5 -16
-11z"/>
<path d="M2194 825 c-4 -9 -2 -21 4 -27 16 -16 47 -5 47 17 0 26 -42 34 -51
10z"/>
<path d="M650 749 c0 -24 23 -21 28 4 2 10 -3 17 -12 17 -10 0 -16 -9 -16 -21z"/>
<path d="M2070 756 c0 -8 4 -17 9 -20 11 -7 33 18 24 27 -12 12 -33 7 -33 -7z"/>
<path d="M2313 715 c-3 -9 -3 -18 0 -22 10 -10 37 6 37 22 0 20 -29 20 -37 0z"/>
<path d="M981 671 c-21 -13 -5 -41 24 -41 18 0 25 5 25 19 0 10 -7 22 -16 25
-19 7 -16 8 -33 -3z"/>
<path d="M2170 596 c0 -19 26 -27 39 -12 13 15 4 26 -21 26 -10 0 -18 -6 -18
-14z"/>
<path d="M2117 578 c-21 -11 -22 -34 -2 -42 22 -8 45 4 45 24 0 22 -21 31 -43
18z"/>
<path d="M830 550 c0 -15 5 -20 18 -18 9 2 17 10 17 18 0 8 -8 16 -17 18 -13
2 -18 -3 -18 -18z"/>
<path d="M882 508 c7 -19 38 -22 38 -4 0 10 -9 16 -21 16 -12 0 -19 -5 -17
-12z"/>
<path d="M806 491 c-9 -15 23 -36 36 -23 5 5 7 15 4 21 -9 13 -33 14 -40 2z"/>
<path d="M1156 462 c-2 -4 -1 -14 4 -22 7 -11 11 -11 24 -1 9 7 13 17 10 22
-7 11 -31 12 -38 1z"/>
<path d="M1000 441 c0 -14 -6 -21 -20 -21 -22 0 -27 -15 -8 -26 6 -4 16 0 22
8 6 9 20 17 31 19 27 6 25 33 -2 37 -18 3 -23 -2 -23 -17z"/>
<path d="M1400 430 c-16 -10 -6 -40 15 -40 8 0 15 2 15 4 0 2 3 11 6 19 6 17
-17 29 -36 17z"/>
<path d="M1557 414 c-11 -11 3 -24 24 -24 12 0 19 5 17 13 -5 14 -31 21 -41
11z"/>
<path d="M1200 375 c0 -21 30 -31 40 -14 11 17 3 29 -21 29 -10 0 -19 -7 -19
-15z"/>
<path d="M1680 376 c-10 -13 -9 -17 4 -22 22 -8 49 3 44 19 -7 18 -33 20 -48
3z"/>
<path d="M937 373 c-4 -3 -7 -12 -7 -20 0 -15 26 -18 34 -4 7 11 -18 33 -27
24z"/>
<path d="M1750 350 c0 -16 5 -21 23 -18 12 2 22 10 22 18 0 8 -10 16 -22 18
-18 3 -23 -2 -23 -18z"/>
<path d="M1164 288 c-4 -6 1 -17 11 -25 11 -7 13 -13 7 -13 -7 0 -12 -7 -12
-15 0 -14 4 -14 45 0 18 6 18 8 4 18 -8 7 -18 20 -22 30 -7 20 -23 22 -33 5z"/>
<path d="M1670 230 c0 -16 5 -21 23 -18 12 2 22 10 22 18 0 8 -10 16 -22 18
-18 3 -23 -2 -23 -18z"/>
<path d="M1393 183 c-20 -7 -15 -33 5 -33 24 0 32 8 25 26 -5 15 -10 16 -30 7z"/>
</g>
</svg>
