<?xml version="1.0" standalone="no"?>
<!DOCTYPE svg PUBLIC "-//W3C//DTD SVG 20010904//EN"
 "http://www.w3.org/TR/2001/REC-SVG-20010904/DTD/svg10.dtd">
<svg version="1.0" xmlns="http://www.w3.org/2000/svg"
 width="500.000000pt" height="500.000000pt" viewBox="0 0 500.000000 500.000000"
 preserveAspectRatio="xMidYMid meet">

<g transform="translate(0.000000,500.000000) scale(0.100000,-0.100000)"
fill="#000000" stroke="none">
<path d="M2426 3553 c-11 -11 -6 -23 9 -23 8 0 15 4 15 9 0 13 -16 22 -24 14z"/>
<path d="M2650 3540 c0 -5 7 -10 16 -10 8 0 12 5 9 10 -3 6 -10 10 -16 10 -5
0 -9 -4 -9 -10z"/>
<path d="M2790 3540 c0 -5 5 -10 10 -10 6 0 10 5 10 10 0 6 -4 10 -10 10 -5 0
-10 -4 -10 -10z"/>
<path d="M2600 3530 c0 -5 5 -10 10 -10 6 0 10 5 10 10 0 6 -4 10 -10 10 -5 0
-10 -4 -10 -10z"/>
<path d="M1980 3521 c0 -6 5 -13 10 -16 6 -3 10 1 10 9 0 9 -4 16 -10 16 -5 0
-10 -4 -10 -9z"/>
<path d="M2614 3505 c-7 -18 3 -35 21 -35 18 0 26 25 12 39 -15 15 -27 14 -33
-4z"/>
<path d="M2720 3510 c0 -5 5 -10 10 -10 6 0 10 5 10 10 0 6 -4 10 -10 10 -5 0
-10 -4 -10 -10z"/>
<path d="M2060 3500 c0 -5 5 -10 10 -10 6 0 10 5 10 10 0 6 -4 10 -10 10 -5 0
-10 -4 -10 -10z"/>
<path d="M2767 3503 c-2 -5 -7 -25 -11 -45 -10 -55 -34 -46 -27 10 2 13 -26
28 -35 19 -3 -3 3 -31 15 -62 12 -31 21 -58 21 -60 0 -7 -95 37 -112 53 -10 8
-18 23 -18 34 0 10 -7 18 -15 18 -18 0 -20 -21 -3 -38 17 -17 0 -28 -23 -14
-22 14 -39 8 -39 -12 0 -9 21 -16 61 -20 46 -6 59 -10 50 -19 -15 -15 -14 -27
4 -27 8 0 15 7 15 16 0 36 97 -22 106 -64 3 -15 8 -35 11 -44 4 -17 -10 -18
-186 -18 l-190 0 -35 33 c-19 18 -37 46 -41 63 -7 33 -24 93 -32 112 -2 7 1
11 7 10 7 -2 15 3 17 11 4 9 0 11 -16 6 -17 -5 -21 -2 -21 14 0 12 -7 21 -15
21 -20 0 -19 -13 5 -60 11 -22 20 -42 20 -45 0 -14 -22 9 -30 31 -5 13 -16 24
-25 24 -18 0 -20 -26 -2 -33 6 -3 27 -31 46 -63 19 -33 48 -74 65 -91 l30 -33
-56 0 c-48 0 -63 5 -100 33 -24 17 -62 44 -86 60 -53 35 -111 110 -88 115 9 2
16 10 16 18 0 17 -26 19 -33 2 -4 -8 -8 -4 -12 10 -8 25 -35 30 -35 7 0 -8 3
-15 8 -15 4 0 20 -23 35 -50 16 -28 24 -50 19 -50 -20 0 -82 31 -82 41 0 16
-35 6 -36 -11 0 -8 -4 -23 -9 -33 -10 -23 8 -42 30 -33 12 4 15 13 12 27 -4
13 -1 19 6 15 7 -2 47 -19 91 -36 43 -16 98 -45 123 -62 41 -30 43 -33 24 -41
-14 -7 -29 -4 -55 13 -20 12 -36 26 -36 31 0 12 -27 12 -34 0 -3 -5 9 -19 27
-31 28 -19 29 -21 7 -15 -41 10 -70 28 -70 42 0 7 -4 13 -10 13 -13 0 -13 -12
0 -44 6 -17 17 -26 32 -26 32 0 68 -11 68 -20 0 -26 -170 -38 -222 -15 -13 5
-18 3 -18 -9 0 -10 9 -16 23 -16 42 0 49 -15 17 -38 -16 -12 -34 -22 -40 -22
-5 0 -10 -4 -10 -9 0 -16 19 -23 32 -11 64 53 94 70 126 70 19 0 70 16 113 36
44 19 90 34 103 32 23 -3 16 -14 -91 -158 l-116 -155 -66 -17 c-92 -24 -119
-23 -123 4 -4 27 -26 35 -35 12 -4 -11 1 -22 13 -31 17 -13 16 -14 -21 -11
-32 2 -40 -1 -43 -15 -3 -15 2 -17 40 -11 l43 7 -22 -25 c-23 -24 -30 -48 -15
-48 4 0 19 15 34 34 21 26 43 39 85 51 32 9 67 19 77 22 14 4 6 -12 -27 -54
-54 -70 -75 -85 -141 -102 -26 -6 -75 -25 -107 -41 -32 -17 -65 -30 -73 -30
-18 0 -29 -16 -21 -30 5 -7 11 -8 19 -1 6 5 24 15 39 20 25 10 27 9 18 -8 -6
-10 -24 -30 -41 -44 -31 -27 -39 -47 -17 -47 6 0 30 25 52 56 58 80 70 89 127
102 28 7 52 11 54 9 7 -6 -114 -170 -140 -188 -10 -8 1 -29 15 -29 5 0 13 8
16 18 4 9 15 28 25 41 l18 24 0 -23 c0 -22 -29 -82 -42 -88 -12 -5 -10 -22 2
-22 26 0 49 39 59 98 14 87 63 165 73 115 5 -26 -12 -155 -24 -177 -6 -12 -6
-22 0 -28 16 -16 32 1 32 35 1 28 2 30 11 13 10 -16 9 -108 -2 -145 -2 -7 1
-15 8 -18 8 -3 14 13 19 46 7 53 12 59 32 39 22 -22 24 0 2 24 -36 39 -66 110
-60 147 5 32 8 29 112 -121 68 -97 108 -162 108 -179 0 -14 -11 -68 -25 -120
-19 -74 -30 -99 -52 -116 -30 -24 -24 -45 7 -25 26 16 27 16 34 -10 4 -17 8
-20 17 -11 8 8 8 16 0 32 -9 15 -8 34 2 73 l13 53 15 -59 c8 -33 21 -62 28
-64 10 -3 12 1 9 14 -36 127 -40 153 -34 188 l7 38 60 -87 c65 -96 73 -132 44
-202 -18 -42 -19 -53 -5 -53 6 0 17 14 24 32 13 30 14 30 21 9 4 -14 0 -31
-11 -49 -10 -15 -17 -30 -16 -34 1 -5 -3 -8 -8 -8 -6 0 -10 -5 -10 -10 0 -21
42 16 56 49 12 29 12 40 -1 84 -8 28 -13 52 -11 54 8 9 86 -111 86 -133 0 -23
44 -84 61 -84 16 0 10 18 -16 46 -44 47 -26 63 19 17 l27 -27 6 23 c5 18 12
22 37 19 22 -2 31 1 31 12 0 11 -11 14 -48 11 -63 -3 -97 11 -125 54 -25 40
-24 40 23 21 31 -13 45 -12 45 3 0 4 -21 13 -46 20 -45 13 -114 63 -114 82 0
5 81 9 181 9 l182 0 52 -30 c29 -17 77 -53 106 -80 29 -28 58 -50 63 -50 5 0
18 -8 28 -17 16 -15 21 -15 28 -3 11 18 4 30 -18 30 -10 0 -35 12 -56 26 -29
20 -35 28 -25 35 22 14 31 11 88 -26 35 -23 58 -32 64 -26 13 13 0 31 -22 31
-9 0 -26 7 -37 15 -19 14 -19 14 2 15 11 0 25 -5 32 -12 9 -9 15 -9 23 -1 25
25 -3 35 -95 32 -87 -3 -93 -2 -141 29 l-50 32 127 0 127 0 93 -44 c59 -28 97
-41 102 -35 14 13 -1 23 -51 38 -50 14 -53 22 -18 45 24 16 28 16 60 0 32 -15
55 -13 55 5 0 5 -14 11 -31 15 -30 6 -32 26 -3 26 8 0 14 7 14 15 0 24 -15 18
-87 -31 -67 -46 -67 -46 -100 -30 -30 14 -32 18 -22 37 20 38 101 108 128 111
15 2 27 10 29 21 4 22 -27 35 -42 16 -6 -8 -22 -23 -35 -34 l-24 -20 7 48 c7
44 6 48 -11 45 -15 -3 -17 -12 -15 -48 5 -80 -69 -167 -135 -158 -21 3 -17 13
73 171 53 93 104 171 113 173 9 3 39 16 67 30 28 13 61 24 73 24 12 0 19 4 16
10 -3 6 -17 10 -31 10 -28 0 -30 8 -10 35 10 14 25 19 55 19 30 -1 41 3 41 13
0 11 -9 14 -35 11 -19 -2 -35 -2 -35 0 0 13 64 82 75 82 19 0 29 20 18 31 -15
15 -88 -65 -135 -146 -42 -73 -62 -95 -85 -95 -16 0 41 108 92 175 16 22 41
65 55 95 14 30 31 59 39 64 36 23 82 78 77 92 -8 21 -30 12 -34 -13 -2 -11
-14 -31 -28 -44 l-24 -22 0 34 c0 19 7 47 15 63 19 36 19 56 0 56 -8 0 -15 -3
-16 -7 0 -5 -3 -17 -5 -28 -3 -11 -9 -47 -13 -80 -7 -56 -35 -130 -61 -165 -9
-12 -10 -9 -6 15 3 17 6 57 8 90 1 49 -1 61 -15 63 -14 3 -15 -4 -10 -46 7
-59 -5 -148 -17 -136 -5 5 -63 92 -129 194 -75 115 -121 194 -120 210 0 21 10
30 57 51 31 15 65 29 75 32 9 4 17 13 17 21 0 8 5 16 12 18 9 3 9 6 0 12 -7 4
-12 2 -12 -4 0 -6 -5 -8 -10 -5 -6 4 -28 -9 -51 -28 -44 -38 -81 -54 -72 -31
6 16 81 78 106 87 19 7 22 22 7 32 -6 4 -25 -7 -42 -24 -38 -37 -45 -34 -21
11 10 18 18 38 18 43 0 6 4 16 8 23 12 18 -1 15 -22 -5 -10 -10 -21 -29 -24
-43 -4 -14 -21 -58 -40 -98 l-33 -72 -32 46 c-51 72 -54 106 -16 189 33 71 34
85 8 85 -9 0 -14 -11 -14 -31 0 -31 -27 -89 -42 -89 -19 0 -4 58 33 131 11 23
-12 43 -24 22z m158 -504 c72 -111 146 -227 166 -258 l36 -56 -151 -265 -152
-265 -271 -3 -271 -2 -113 162 c-62 90 -146 210 -185 268 l-72 106 61 85 c34
47 119 162 190 257 l127 172 253 0 252 0 130 -201z"/>
<path d="M2380 2891 c0 -5 9 -13 20 -16 19 -6 20 -15 20 -195 0 -179 -1 -190
-20 -200 -46 -25 -17 -30 132 -28 l152 3 9 43 c5 24 6 46 3 49 -3 3 -20 -10
-38 -30 -42 -44 -113 -59 -153 -33 -23 15 -25 22 -25 96 l0 80 39 0 c53 0 71
-8 82 -36 16 -45 29 -25 29 46 0 73 -15 93 -35 48 -6 -15 -24 -26 -46 -32 -64
-16 -69 -9 -69 99 l0 95 59 0 c66 0 104 -22 115 -66 11 -44 27 -13 20 39 l-7
47 -143 0 c-83 0 -144 -4 -144 -9z"/>
<path d="M2810 3500 c0 -5 5 -10 10 -10 6 0 10 5 10 10 0 6 -4 10 -10 10 -5 0
-10 -4 -10 -10z"/>
<path d="M2394 3489 c-10 -17 13 -36 27 -22 12 12 4 33 -11 33 -5 0 -12 -5
-16 -11z"/>
<path d="M2475 3470 c-3 -5 1 -10 9 -10 9 0 16 5 16 10 0 6 -4 10 -9 10 -6 0
-13 -4 -16 -10z"/>
<path d="M2080 3460 c0 -5 5 -10 10 -10 6 0 10 5 10 10 0 6 -4 10 -10 10 -5 0
-10 -4 -10 -10z"/>
<path d="M1907 3444 c-8 -8 1 -24 14 -24 5 0 9 7 9 15 0 15 -12 20 -23 9z"/>
<path d="M2175 3440 c4 -6 11 -8 16 -5 14 9 11 15 -7 15 -8 0 -12 -5 -9 -10z"/>
<path d="M1960 3415 c0 -8 5 -15 10 -15 6 0 10 7 10 15 0 8 -4 15 -10 15 -5 0
-10 -7 -10 -15z"/>
<path d="M2320 3420 c0 -5 5 -10 10 -10 6 0 10 5 10 10 0 6 -4 10 -10 10 -5 0
-10 -4 -10 -10z"/>
<path d="M2157 3414 c-8 -8 1 -24 14 -24 5 0 9 7 9 15 0 15 -12 20 -23 9z"/>
<path d="M1875 3400 c-7 -12 2 -30 16 -30 12 0 12 27 0 35 -5 3 -12 1 -16 -5z"/>
<path d="M2174 3375 c-7 -18 3 -35 21 -35 21 0 28 19 15 35 -16 19 -29 19 -36
0z"/>
<path d="M2830 3375 c0 -8 5 -15 10 -15 6 0 10 7 10 15 0 8 -4 15 -10 15 -5 0
-10 -7 -10 -15z"/>
<path d="M2920 3380 c0 -5 5 -10 10 -10 6 0 10 5 10 10 0 6 -4 10 -10 10 -5 0
-10 -4 -10 -10z"/>
<path d="M2870 3360 c0 -5 5 -10 10 -10 6 0 10 5 10 10 0 6 -4 10 -10 10 -5 0
-10 -4 -10 -10z"/>
<path d="M2360 3350 c0 -5 5 -10 10 -10 6 0 10 5 10 10 0 6 -4 10 -10 10 -5 0
-10 -4 -10 -10z"/>
<path d="M2390 3335 c0 -8 7 -15 15 -15 8 0 15 7 15 15 0 8 -7 15 -15 15 -8 0
-15 -7 -15 -15z"/>
<path d="M2560 3340 c0 -5 5 -10 10 -10 6 0 10 5 10 10 0 6 -4 10 -10 10 -5 0
-10 -4 -10 -10z"/>
<path d="M2661 3341 c-15 -10 -8 -41 9 -41 15 0 25 29 14 40 -5 5 -15 5 -23 1z"/>
<path d="M2804 3339 c-3 -6 0 -18 9 -26 18 -18 37 -9 37 18 0 21 -34 27 -46 8z"/>
<path d="M2352 3317 c-15 -17 1 -42 23 -33 18 6 17 37 -1 43 -6 2 -16 -2 -22
-10z"/>
<path d="M2510 3305 c-10 -12 -9 -16 5 -21 19 -8 40 9 31 25 -10 15 -21 14
-36 -4z"/>
<path d="M2040 3290 c0 -5 5 -10 10 -10 6 0 10 5 10 10 0 6 -4 10 -10 10 -5 0
-10 -4 -10 -10z"/>
<path d="M3040 3290 c0 -5 5 -10 10 -10 6 0 10 5 10 10 0 6 -4 10 -10 10 -5 0
-10 -4 -10 -10z"/>
<path d="M2110 3281 c0 -6 5 -13 10 -16 6 -3 10 1 10 9 0 9 -4 16 -10 16 -5 0
-10 -4 -10 -9z"/>
<path d="M2430 3270 c0 -5 5 -10 10 -10 6 0 10 5 10 10 0 6 -4 10 -10 10 -5 0
-10 -4 -10 -10z"/>
<path d="M1870 3205 c0 -8 5 -15 10 -15 6 0 10 7 10 15 0 8 -4 15 -10 15 -5 0
-10 -7 -10 -15z"/>
<path d="M1915 3210 c-4 -7 -3 -16 3 -22 14 -14 45 -2 40 15 -6 16 -34 21 -43
7z"/>
<path d="M3040 3190 c0 -5 4 -10 9 -10 6 0 13 5 16 10 3 6 -1 10 -9 10 -9 0
-16 -4 -16 -10z"/>
<path d="M2980 3175 c-10 -11 -10 -19 -2 -27 15 -15 44 -2 40 19 -4 23 -22 27
-38 8z"/>
<path d="M3130 3174 c0 -17 22 -14 28 4 2 7 -3 12 -12 12 -9 0 -16 -7 -16 -16z"/>
<path d="M3190 3145 c0 -9 5 -15 11 -13 6 2 11 8 11 13 0 5 -5 11 -11 13 -6 2
-11 -4 -11 -13z"/>
<path d="M1820 3130 c0 -5 5 -10 10 -10 6 0 10 5 10 10 0 6 -4 10 -10 10 -5 0
-10 -4 -10 -10z"/>
<path d="M1850 3120 c0 -5 5 -10 10 -10 6 0 10 5 10 10 0 6 -4 10 -10 10 -5 0
-10 -4 -10 -10z"/>
<path d="M2060 3115 c0 -8 7 -15 15 -15 8 0 15 7 15 15 0 8 -7 15 -15 15 -8 0
-15 -7 -15 -15z"/>
<path d="M3120 3104 c0 -9 5 -14 12 -12 18 6 21 28 4 28 -9 0 -16 -7 -16 -16z"/>
<path d="M1830 3074 c0 -8 5 -12 10 -9 6 3 10 10 10 16 0 5 -4 9 -10 9 -5 0
-10 -7 -10 -16z"/>
<path d="M3150 3079 c0 -5 5 -7 10 -4 6 3 10 8 10 11 0 2 -4 4 -10 4 -5 0 -10
-5 -10 -11z"/>
<path d="M1930 3064 c0 -8 5 -12 10 -9 6 4 8 11 5 16 -9 14 -15 11 -15 -7z"/>
<path d="M3120 3070 c0 -5 5 -10 10 -10 6 0 10 5 10 10 0 6 -4 10 -10 10 -5 0
-10 -4 -10 -10z"/>
<path d="M2944 3056 c-9 -24 4 -48 23 -44 12 2 18 12 18 28 0 29 -32 41 -41
16z"/>
<path d="M3005 3060 c-3 -5 -1 -10 4 -10 6 0 11 5 11 10 0 6 -2 10 -4 10 -3 0
-8 -4 -11 -10z"/>
<path d="M1720 3035 c0 -9 5 -15 11 -13 6 2 11 8 11 13 0 5 -5 11 -11 13 -6 2
-11 -4 -11 -13z"/>
<path d="M1970 3025 c0 -8 7 -15 15 -15 8 0 15 7 15 15 0 8 -7 15 -15 15 -8 0
-15 -7 -15 -15z"/>
<path d="M3003 3024 c-8 -21 13 -42 28 -27 13 13 5 43 -11 43 -6 0 -13 -7 -17
-16z"/>
<path d="M3185 3030 c3 -5 10 -10 16 -10 5 0 9 5 9 10 0 6 -7 10 -16 10 -8 0
-12 -4 -9 -10z"/>
<path d="M2013 3004 c-8 -22 9 -49 33 -49 30 0 27 59 -4 63 -14 2 -25 -3 -29
-14z m37 -14 c0 -5 -4 -10 -10 -10 -5 0 -10 5 -10 10 0 6 5 10 10 10 6 0 10
-4 10 -10z"/>
<path d="M1741 3000 c-16 -9 -6 -30 15 -30 15 0 20 25 6 34 -4 2 -14 1 -21 -4z"/>
<path d="M3174 2999 c-3 -6 -2 -15 4 -21 13 -13 32 -2 32 18 0 16 -26 19 -36
3z"/>
<path d="M3320 2985 c0 -8 5 -15 10 -15 6 0 10 7 10 15 0 8 -4 15 -10 15 -5 0
-10 -7 -10 -15z"/>
<path d="M1901 2956 c-17 -20 -2 -46 25 -46 29 0 41 24 24 45 -16 19 -34 19
-49 1z"/>
<path d="M1860 2950 c0 -5 5 -10 10 -10 6 0 10 5 10 10 0 6 -4 10 -10 10 -5 0
-10 -4 -10 -10z"/>
<path d="M3040 2945 c0 -9 5 -15 11 -13 6 2 11 8 11 13 0 5 -5 11 -11 13 -6 2
-11 -4 -11 -13z"/>
<path d="M3088 2948 c-8 -21 2 -38 22 -38 19 0 30 17 23 38 -3 6 -13 12 -23
12 -10 0 -20 -6 -22 -12z"/>
<path d="M3360 2940 c0 -5 5 -10 10 -10 6 0 10 5 10 10 0 6 -4 10 -10 10 -5 0
-10 -4 -10 -10z"/>
<path d="M3080 2865 c0 -22 4 -26 23 -23 14 2 22 10 22 23 0 13 -8 21 -22 23
-19 3 -23 -1 -23 -23z"/>
<path d="M3305 2870 c-4 -7 -3 -16 3 -22 14 -14 45 -2 40 15 -6 16 -34 21 -43
7z"/>
<path d="M3275 2830 c-4 -6 -3 -16 3 -22 6 -6 12 -6 17 2 4 6 3 16 -3 22 -6 6
-12 6 -17 -2z"/>
<path d="M1720 2820 c0 -5 5 -10 10 -10 6 0 10 5 10 10 0 6 -4 10 -10 10 -5 0
-10 -4 -10 -10z"/>
<path d="M3330 2810 c0 -5 5 -10 11 -10 5 0 7 5 4 10 -3 6 -8 10 -11 10 -2 0
-4 -4 -4 -10z"/>
<path d="M1870 2785 c-16 -19 -5 -47 17 -43 11 2 18 12 18 27 0 29 -17 37 -35
16z"/>
<path d="M1747 2784 c-8 -8 1 -24 14 -24 5 0 9 7 9 15 0 15 -12 20 -23 9z"/>
<path d="M1705 2710 c3 -5 8 -10 11 -10 2 0 4 5 4 10 0 6 -5 10 -11 10 -5 0
-7 -4 -4 -10z"/>
<path d="M1644 2695 c-4 -9 -2 -21 4 -27 15 -15 44 -1 40 19 -4 23 -36 29 -44
8z"/>
<path d="M3257 2696 c-7 -17 18 -40 33 -31 5 3 10 15 10 26 0 23 -35 27 -43 5z"/>
<path d="M3350 2660 c0 -5 5 -10 10 -10 6 0 10 5 10 10 0 6 -4 10 -10 10 -5 0
-10 -4 -10 -10z"/>
<path d="M3302 2649 c2 -6 8 -10 13 -10 5 0 11 4 13 10 2 6 -4 11 -13 11 -9 0
-15 -5 -13 -11z"/>
<path d="M3340 2610 c0 -5 5 -10 10 -10 6 0 10 5 10 10 0 6 -4 10 -10 10 -5 0
-10 -4 -10 -10z"/>
<path d="M3270 2599 c0 -5 5 -7 10 -4 6 3 10 8 10 11 0 2 -4 4 -10 4 -5 0 -10
-5 -10 -11z"/>
<path d="M3230 2574 c0 -8 5 -12 10 -9 6 4 8 11 5 16 -9 14 -15 11 -15 -7z"/>
<path d="M1715 2560 c3 -5 8 -10 11 -10 2 0 4 5 4 10 0 6 -5 10 -11 10 -5 0
-7 -4 -4 -10z"/>
<path d="M3212 2529 c2 -6 8 -10 13 -10 5 0 11 4 13 10 2 6 -4 11 -13 11 -9 0
-15 -5 -13 -11z"/>
<path d="M1692 2514 c4 -21 22 -23 26 -1 2 10 -3 17 -13 17 -10 0 -15 -6 -13
-16z"/>
<path d="M3154 2516 c-9 -24 4 -48 23 -44 12 2 18 12 18 28 0 29 -32 41 -41
16z"/>
<path d="M1646 2502 c-3 -6 -1 -14 5 -17 15 -10 25 3 12 16 -7 7 -13 7 -17 1z"/>
<path d="M3210 2490 c0 -5 5 -10 10 -10 6 0 10 5 10 10 0 6 -4 10 -10 10 -5 0
-10 -4 -10 -10z"/>
<path d="M1845 2480 c4 -6 11 -8 16 -5 14 9 11 15 -7 15 -8 0 -12 -5 -9 -10z"/>
<path d="M1730 2435 c0 -8 7 -15 15 -15 8 0 15 7 15 15 0 8 -7 15 -15 15 -8 0
-15 -7 -15 -15z"/>
<path d="M3035 2441 c-7 -12 12 -24 25 -16 11 7 4 25 -10 25 -5 0 -11 -4 -15
-9z"/>
<path d="M1810 2415 c0 -8 5 -15 10 -15 6 0 10 7 10 15 0 8 -4 15 -10 15 -5 0
-10 -7 -10 -15z"/>
<path d="M3005 2401 c-3 -5 -1 -12 5 -16 12 -7 30 2 30 16 0 12 -27 12 -35 0z"/>
<path d="M3056 2403 c-11 -11 -6 -23 9 -23 8 0 15 4 15 9 0 13 -16 22 -24 14z"/>
<path d="M3215 2400 c-3 -5 -1 -10 4 -10 6 0 11 5 11 10 0 6 -2 10 -4 10 -3 0
-8 -4 -11 -10z"/>
<path d="M3262 2389 c2 -6 8 -10 13 -10 5 0 11 4 13 10 2 6 -4 11 -13 11 -9 0
-15 -5 -13 -11z"/>
<path d="M1876 2351 c-4 -5 -2 -12 3 -15 5 -4 12 -2 15 3 4 5 2 12 -3 15 -5 4
-12 2 -15 -3z"/>
<path d="M2032 2328 c2 -15 10 -23 23 -23 30 0 27 39 -3 43 -20 3 -23 0 -20
-20z"/>
<path d="M3155 2320 c-3 -5 -1 -10 4 -10 6 0 11 5 11 10 0 6 -2 10 -4 10 -3 0
-8 -4 -11 -10z"/>
<path d="M1890 2300 c0 -5 5 -10 10 -10 6 0 10 5 10 10 0 6 -4 10 -10 10 -5 0
-10 -4 -10 -10z"/>
<path d="M1940 2290 c0 -5 5 -10 10 -10 6 0 10 5 10 10 0 6 -4 10 -10 10 -5 0
-10 -4 -10 -10z"/>
<path d="M3180 2290 c0 -5 5 -10 10 -10 6 0 10 5 10 10 0 6 -4 10 -10 10 -5 0
-10 -4 -10 -10z"/>
<path d="M2040 2275 c0 -9 5 -15 11 -13 6 2 11 8 11 13 0 5 -5 11 -11 13 -6 2
-11 -4 -11 -13z"/>
<path d="M3130 2270 c0 -15 5 -20 18 -18 9 2 17 10 17 18 0 8 -8 16 -17 18
-13 2 -18 -3 -18 -18z"/>
<path d="M3077 2254 c-4 -4 -7 -16 -7 -26 0 -14 6 -19 23 -16 14 2 22 10 22
23 0 20 -25 32 -38 19z"/>
<path d="M1900 2225 c0 -9 5 -15 11 -13 6 2 11 8 11 13 0 5 -5 11 -11 13 -6 2
-11 -4 -11 -13z"/>
<path d="M3180 2230 c0 -5 5 -10 10 -10 6 0 10 5 10 10 0 6 -4 10 -10 10 -5 0
-10 -4 -10 -10z"/>
<path d="M1950 2175 c0 -9 5 -15 11 -13 6 2 11 8 11 13 0 5 -5 11 -11 13 -6 2
-11 -4 -11 -13z"/>
<path d="M3195 2181 c-3 -5 -1 -12 5 -16 5 -3 10 1 10 9 0 18 -6 21 -15 7z"/>
<path d="M1880 2155 c0 -8 7 -15 15 -15 8 0 15 7 15 15 0 8 -7 15 -15 15 -8 0
-15 -7 -15 -15z"/>
<path d="M2194 2129 c-8 -14 18 -31 30 -19 9 9 0 30 -14 30 -5 0 -12 -5 -16
-11z"/>
<path d="M2053 2114 c-3 -8 -1 -20 4 -25 12 -12 48 14 39 29 -10 17 -36 15
-43 -4z"/>
<path d="M2570 2110 c0 -5 5 -10 10 -10 6 0 10 5 10 10 0 6 -4 10 -10 10 -5 0
-10 -4 -10 -10z"/>
<path d="M2421 2100 c-17 -10 -7 -40 14 -40 8 0 15 9 15 19 0 24 -12 32 -29
21z"/>
<path d="M2020 2075 c0 -8 7 -15 15 -15 8 0 15 7 15 15 0 8 -7 15 -15 15 -8 0
-15 -7 -15 -15z"/>
<path d="M2576 2083 c-11 -11 -6 -23 9 -23 8 0 15 4 15 9 0 13 -16 22 -24 14z"/>
<path d="M3175 2080 c-3 -5 1 -10 10 -10 9 0 13 5 10 10 -3 6 -8 10 -10 10 -2
0 -7 -4 -10 -10z"/>
<path d="M2247 2054 c-14 -15 -6 -34 14 -34 14 0 19 5 17 17 -3 18 -20 27 -31
17z"/>
<path d="M2475 2049 c-10 -15 3 -25 16 -12 7 7 7 13 1 17 -6 3 -14 1 -17 -5z"/>
<path d="M2683 2044 c-7 -19 11 -39 26 -30 16 10 13 33 -4 40 -9 3 -18 -1 -22
-10z"/>
<path d="M1995 2029 c-10 -15 3 -25 16 -12 7 7 7 13 1 17 -6 3 -14 1 -17 -5z"/>
<path d="M2744 2025 c-7 -18 3 -35 21 -35 15 0 28 27 19 41 -8 14 -34 11 -40
-6z"/>
<path d="M3016 2031 c-4 -5 -2 -12 3 -15 5 -4 12 -2 15 3 4 5 2 12 -3 15 -5 4
-12 2 -15 -3z"/>
<path d="M3090 2020 c0 -5 5 -10 10 -10 6 0 10 5 10 10 0 6 -4 10 -10 10 -5 0
-10 -4 -10 -10z"/>
<path d="M2156 2011 c-4 -5 -2 -12 3 -15 5 -4 12 -2 15 3 4 5 2 12 -3 15 -5 4
-12 2 -15 -3z"/>
<path d="M2470 2000 c0 -5 5 -10 10 -10 6 0 10 5 10 10 0 6 -4 10 -10 10 -5 0
-10 -4 -10 -10z"/>
<path d="M2700 1990 c0 -5 7 -10 15 -10 8 0 15 5 15 10 0 6 -7 10 -15 10 -8 0
-15 -4 -15 -10z"/>
<path d="M2085 1980 c-3 -5 -1 -10 4 -10 6 0 11 5 11 10 0 6 -2 10 -4 10 -3 0
-8 -4 -11 -10z"/>
<path d="M2750 1960 c0 -5 7 -10 15 -10 8 0 15 5 15 10 0 6 -7 10 -15 10 -8 0
-15 -4 -15 -10z"/>
<path d="M2215 1950 c-4 -6 -3 -16 3 -22 6 -6 12 -6 17 2 4 6 3 16 -3 22 -6 6
-12 6 -17 -2z"/>
<path d="M2960 1950 c0 -5 5 -10 10 -10 6 0 10 5 10 10 0 6 -4 10 -10 10 -5 0
-10 -4 -10 -10z"/>
<path d="M2870 1930 c0 -5 7 -10 15 -10 8 0 15 5 15 10 0 6 -7 10 -15 10 -8 0
-15 -4 -15 -10z"/>
<path d="M2230 1909 c0 -5 -4 -7 -10 -4 -5 3 -10 1 -10 -4 0 -14 43 -7 48 7 2
7 -3 12 -12 12 -9 0 -16 -5 -16 -11z"/>
<path d="M2530 1895 c0 -8 5 -15 10 -15 6 0 10 7 10 15 0 8 -4 15 -10 15 -5 0
-10 -7 -10 -15z"/>
<path d="M2674 1899 c-8 -14 11 -33 25 -25 6 4 11 14 11 22 0 16 -26 19 -36 3z"/>
<path d="M2322 1879 c2 -6 8 -10 13 -10 5 0 11 4 13 10 2 6 -4 11 -13 11 -9 0
-15 -5 -13 -11z"/>
<path d="M2497 1854 c-8 -8 1 -24 14 -24 5 0 9 7 9 15 0 15 -12 20 -23 9z"/>
<path d="M2411 1836 c-12 -14 -5 -26 16 -26 15 0 18 26 4 34 -5 3 -14 0 -20
-8z"/>
<path d="M1220 1530 l0 -110 66 0 c48 0 65 3 62 13 -3 7 -25 13 -52 15 l-47 3
3 37 c3 36 4 37 46 40 56 4 54 22 -4 22 -45 0 -45 0 -42 33 3 31 5 32 51 35
71 5 57 22 -18 22 l-65 0 0 -110z"/>
<path d="M1473 1633 c3 -5 19 -54 36 -110 43 -140 57 -140 100 3 18 58 30 108
28 111 -13 12 -25 -11 -47 -91 -14 -48 -27 -86 -30 -86 -4 0 -19 41 -33 90
-19 63 -32 90 -43 90 -8 0 -13 -3 -11 -7z"/>
<path d="M1772 1533 l3 -108 54 -3 c29 -2 61 0 70 3 26 10 -7 25 -57 25 l-43
0 3 38 c3 36 4 37 46 40 56 4 54 22 -4 22 -45 0 -45 0 -42 33 3 31 4 32 56 35
77 5 63 22 -18 22 l-71 0 3 -107z"/>
<path d="M2050 1530 c0 -67 4 -110 10 -110 6 0 10 35 10 85 0 47 3 85 8 85 4
0 28 -38 52 -85 62 -117 74 -112 78 28 2 89 0 107 -12 107 -12 0 -16 -17 -18
-82 l-3 -83 -43 83 c-31 61 -47 82 -62 82 -19 0 -20 -7 -20 -110z"/>
<path d="M2340 1631 c0 -6 15 -11 33 -13 l32 -3 3 -97 c1 -54 7 -98 12 -98 5
0 11 44 12 98 l3 97 38 3 c71 6 37 22 -48 22 -47 0 -85 -4 -85 -9z"/>
<path d="M2632 1533 l3 -108 64 -3 c48 -2 62 0 59 10 -3 8 -24 14 -51 16 l-47
3 0 95 c0 78 -3 94 -15 94 -13 0 -15 -16 -13 -107z"/>
<path d="M2880 1631 c0 -5 7 -11 15 -15 12 -4 15 -23 15 -85 0 -61 -3 -80 -15
-85 -29 -11 -15 -26 25 -26 40 0 54 15 25 26 -12 5 -15 24 -15 85 0 62 3 81
15 85 28 11 15 24 -25 24 -22 0 -40 -4 -40 -9z"/>
<path d="M3080 1631 c0 -6 15 -11 33 -13 l32 -3 3 -98 c2 -72 6 -97 15 -94 8
2 14 37 17 98 l5 94 33 3 c66 7 29 22 -53 22 -47 0 -85 -4 -85 -9z"/>
<path d="M3380 1530 l0 -110 66 0 c48 0 65 3 62 13 -3 7 -25 13 -52 15 l-47 3
3 37 c3 35 5 37 41 40 50 4 47 22 -4 22 -39 0 -40 1 -37 33 3 31 5 32 51 35
71 5 57 22 -18 22 l-65 0 0 -110z"/>
<path d="M3640 1630 c0 -5 23 -10 50 -10 30 0 50 -4 50 -11 0 -6 -22 -43 -50
-82 -69 -98 -68 -107 21 -107 52 0 70 3 67 13 -3 7 -26 13 -56 15 l-52 3 55
82 c30 45 55 87 55 94 0 9 -20 13 -70 13 -40 0 -70 -4 -70 -10z"/>
</g>
</svg>
